<svg width="600" height="500" viewBox="0 0 600 500" fill="none" xmlns="http://www.w3.org/2000/svg">
<rect width="600" height="500" fill="#C4C4C4"/>
<path d="M167.243 236.64C163.83 236.64 160.865 235.957 158.347 234.592C155.83 233.184 153.91 231.307 152.587 228.96C151.265 226.613 150.603 224.053 150.603 221.28C150.603 219.019 151.051 216.885 151.947 214.88C152.886 212.832 153.931 211.019 155.083 209.44L167.243 192.48C167.286 192.437 167.414 192.288 167.627 192.032C167.798 191.776 168.033 191.584 168.331 191.456C168.63 191.285 168.971 191.2 169.355 191.2H172.747C173.131 191.2 173.43 191.349 173.643 191.648C173.899 191.904 174.027 192.224 174.027 192.608C174.027 192.907 173.942 193.184 173.771 193.44L164.427 206.496C165.366 206.197 166.582 206.048 168.075 206.048C171.147 206.091 173.857 206.795 176.203 208.16C178.593 209.525 180.427 211.36 181.707 213.664C183.03 215.968 183.691 218.485 183.691 221.216C183.691 223.947 183.03 226.507 181.707 228.896C180.427 231.243 178.529 233.12 176.011 234.528C173.537 235.936 170.614 236.64 167.243 236.64ZM167.179 231.2C169.014 231.2 170.699 230.816 172.235 230.048C173.814 229.28 175.051 228.149 175.947 226.656C176.886 225.12 177.355 223.307 177.355 221.216C177.355 219.168 176.886 217.397 175.947 215.904C175.051 214.411 173.814 213.28 172.235 212.512C170.699 211.744 169.014 211.36 167.179 211.36C165.387 211.36 163.702 211.744 162.123 212.512C160.587 213.28 159.35 214.411 158.411 215.904C157.473 217.397 157.003 219.168 157.003 221.216C157.003 223.307 157.473 225.12 158.411 226.656C159.35 228.149 160.587 229.28 162.123 230.048C163.659 230.816 165.345 231.2 167.179 231.2ZM206.382 236.64C200.878 236.64 196.846 235.04 194.286 231.84C191.726 228.64 190.36 224.437 190.19 219.232C190.147 218.08 190.126 216.224 190.126 213.664C190.126 211.019 190.147 209.099 190.19 207.904C190.318 202.784 191.683 198.624 194.286 195.424C196.888 192.181 200.92 190.56 206.382 190.56C211.886 190.56 215.939 192.181 218.542 195.424C221.144 198.624 222.51 202.784 222.638 207.904C222.723 210.293 222.766 212.213 222.766 213.664C222.766 215.072 222.723 216.928 222.638 219.232C222.467 224.437 221.102 228.64 218.542 231.84C215.982 235.04 211.928 236.64 206.382 236.64ZM206.382 231.136C209.582 231.136 211.992 230.069 213.614 227.936C215.278 225.803 216.152 222.795 216.238 218.912C216.323 216.437 216.366 214.645 216.366 213.536C216.366 212.341 216.323 210.592 216.238 208.288C216.152 204.448 215.299 201.44 213.678 199.264C212.056 197.088 209.624 196 206.382 196C203.182 196 200.75 197.088 199.086 199.264C197.464 201.44 196.611 204.448 196.526 208.288L196.462 213.536L196.526 218.912C196.611 222.795 197.464 225.803 199.086 227.936C200.75 230.069 203.182 231.136 206.382 231.136ZM247.007 236.64C241.503 236.64 237.471 235.04 234.911 231.84C232.351 228.64 230.985 224.437 230.815 219.232C230.772 218.08 230.751 216.224 230.751 213.664C230.751 211.019 230.772 209.099 230.815 207.904C230.943 202.784 232.308 198.624 234.911 195.424C237.513 192.181 241.545 190.56 247.007 190.56C252.511 190.56 256.564 192.181 259.167 195.424C261.769 198.624 263.135 202.784 263.263 207.904C263.348 210.293 263.391 212.213 263.391 213.664C263.391 215.072 263.348 216.928 263.263 219.232C263.092 224.437 261.727 228.64 259.167 231.84C256.607 235.04 252.553 236.64 247.007 236.64ZM247.007 231.136C250.207 231.136 252.617 230.069 254.239 227.936C255.903 225.803 256.777 222.795 256.863 218.912C256.948 216.437 256.991 214.645 256.991 213.536C256.991 212.341 256.948 210.592 256.863 208.288C256.777 204.448 255.924 201.44 254.303 199.264C252.681 197.088 250.249 196 247.007 196C243.807 196 241.375 197.088 239.711 199.264C238.089 201.44 237.236 204.448 237.151 208.288L237.087 213.536L237.151 218.912C237.236 222.795 238.089 225.803 239.711 227.936C241.375 230.069 243.807 231.136 247.007 231.136ZM286.231 236C285.89 236 285.57 235.872 285.271 235.616C285.015 235.36 284.887 235.04 284.887 234.656C284.887 234.272 285.037 233.888 285.335 233.504L296.471 218.976L286.039 205.216C285.741 204.875 285.591 204.491 285.591 204.064C285.591 203.68 285.719 203.36 285.975 203.104C286.231 202.848 286.551 202.72 286.935 202.72H290.199C290.839 202.72 291.394 203.061 291.863 203.744L300.375 214.816L308.887 203.808C309.143 203.467 309.378 203.211 309.591 203.04C309.847 202.827 310.167 202.72 310.551 202.72H313.687C314.071 202.72 314.391 202.848 314.647 203.104C314.903 203.36 315.031 203.68 315.031 204.064C315.031 204.491 314.882 204.875 314.583 205.216L304.023 219.104L315.159 233.504C315.458 233.888 315.607 234.272 315.607 234.656C315.607 235.04 315.479 235.36 315.223 235.616C314.967 235.872 314.647 236 314.263 236H310.871C310.231 236 309.677 235.68 309.207 235.04L300.247 223.328L291.159 235.04C290.903 235.339 290.647 235.573 290.391 235.744C290.178 235.915 289.879 236 289.495 236H286.231ZM351.907 236.64C348.664 236.64 345.869 236.064 343.523 234.912C341.176 233.76 339.363 232.245 338.083 230.368C336.845 228.491 336.184 226.485 336.099 224.352V224.224C336.099 223.883 336.227 223.605 336.483 223.392C336.739 223.179 337.037 223.072 337.379 223.072H340.835C341.731 223.072 342.307 223.541 342.563 224.48C343.16 226.741 344.312 228.427 346.019 229.536C347.725 230.645 349.688 231.2 351.907 231.2C354.765 231.2 357.133 230.347 359.011 228.64C360.931 226.891 361.891 224.48 361.891 221.408C361.891 218.635 360.931 216.395 359.011 214.688C357.133 212.981 354.765 212.128 351.907 212.128C350.371 212.128 349.133 212.341 348.195 212.768C347.256 213.152 346.317 213.707 345.379 214.432C344.867 214.816 344.419 215.115 344.035 215.328C343.693 215.499 343.309 215.584 342.883 215.584H339.555C339.171 215.584 338.829 215.456 338.531 215.2C338.232 214.901 338.104 214.56 338.147 214.176L340.195 192.8C340.237 192.288 340.387 191.904 340.643 191.648C340.941 191.349 341.325 191.2 341.795 191.2H364.131C364.557 191.2 364.899 191.349 365.155 191.648C365.453 191.904 365.603 192.245 365.603 192.672V195.168C365.603 195.595 365.453 195.957 365.155 196.256C364.899 196.512 364.557 196.64 364.131 196.64H345.699L344.483 209.248C346.787 207.797 349.56 207.072 352.803 207.072C355.619 207.072 358.2 207.648 360.547 208.8C362.936 209.952 364.813 211.616 366.179 213.792C367.587 215.968 368.291 218.528 368.291 221.472C368.291 224.629 367.587 227.36 366.179 229.664C364.813 231.925 362.893 233.653 360.419 234.848C357.944 236.043 355.107 236.64 351.907 236.64ZM391.507 236.64C386.003 236.64 381.971 235.04 379.411 231.84C376.851 228.64 375.485 224.437 375.315 219.232C375.272 218.08 375.251 216.224 375.251 213.664C375.251 211.019 375.272 209.099 375.315 207.904C375.443 202.784 376.808 198.624 379.411 195.424C382.013 192.181 386.045 190.56 391.507 190.56C397.011 190.56 401.064 192.181 403.667 195.424C406.269 198.624 407.635 202.784 407.763 207.904C407.848 210.293 407.891 212.213 407.891 213.664C407.891 215.072 407.848 216.928 407.763 219.232C407.592 224.437 406.227 228.64 403.667 231.84C401.107 235.04 397.053 236.64 391.507 236.64ZM391.507 231.136C394.707 231.136 397.117 230.069 398.739 227.936C400.403 225.803 401.277 222.795 401.363 218.912C401.448 216.437 401.491 214.645 401.491 213.536C401.491 212.341 401.448 210.592 401.363 208.288C401.277 204.448 400.424 201.44 398.803 199.264C397.181 197.088 394.749 196 391.507 196C388.307 196 385.875 197.088 384.211 199.264C382.589 201.44 381.736 204.448 381.651 208.288L381.587 213.536L381.651 218.912C381.736 222.795 382.589 225.803 384.211 227.936C385.875 230.069 388.307 231.136 391.507 231.136ZM432.132 236.64C426.628 236.64 422.596 235.04 420.036 231.84C417.476 228.64 416.11 224.437 415.94 219.232C415.897 218.08 415.876 216.224 415.876 213.664C415.876 211.019 415.897 209.099 415.94 207.904C416.068 202.784 417.433 198.624 420.036 195.424C422.638 192.181 426.67 190.56 432.132 190.56C437.636 190.56 441.689 192.181 444.292 195.424C446.894 198.624 448.26 202.784 448.388 207.904C448.473 210.293 448.516 212.213 448.516 213.664C448.516 215.072 448.473 216.928 448.388 219.232C448.217 224.437 446.852 228.64 444.292 231.84C441.732 235.04 437.678 236.64 432.132 236.64ZM432.132 231.136C435.332 231.136 437.742 230.069 439.364 227.936C441.028 225.803 441.902 222.795 441.988 218.912C442.073 216.437 442.116 214.645 442.116 213.536C442.116 212.341 442.073 210.592 441.988 208.288C441.902 204.448 441.049 201.44 439.428 199.264C437.806 197.088 435.374 196 432.132 196C428.932 196 426.5 197.088 424.836 199.264C423.214 201.44 422.361 204.448 422.276 208.288L422.212 213.536L422.276 218.912C422.361 222.795 423.214 225.803 424.836 227.936C426.5 230.069 428.932 231.136 432.132 231.136ZM285.827 312C285.4 312 285.037 311.872 284.739 311.616C284.483 311.317 284.355 310.955 284.355 310.528V308.48C284.355 307.499 284.888 306.56 285.955 305.664L299.523 292.096C302.808 289.365 305.069 287.147 306.307 285.44C307.544 283.691 308.163 281.856 308.163 279.936C308.163 277.461 307.459 275.52 306.051 274.112C304.685 272.704 302.68 272 300.035 272C297.56 272 295.576 272.747 294.083 274.24C292.589 275.691 291.672 277.632 291.331 280.064C291.245 280.576 291.032 280.96 290.691 281.216C290.392 281.429 290.051 281.536 289.667 281.536H286.339C285.955 281.536 285.635 281.429 285.379 281.216C285.123 280.96 284.995 280.661 284.995 280.32C285.08 278.016 285.699 275.819 286.851 273.728C288.003 271.595 289.688 269.867 291.907 268.544C294.168 267.179 296.877 266.496 300.035 266.496C304.856 266.496 308.483 267.755 310.915 270.272C313.389 272.747 314.627 275.904 314.627 279.744C314.627 282.432 313.944 284.864 312.579 287.04C311.256 289.173 309.187 291.477 306.371 293.952L294.083 306.432H314.051C314.52 306.432 314.883 306.581 315.139 306.88C315.437 307.136 315.587 307.477 315.587 307.904V310.528C315.587 310.955 315.437 311.317 315.139 311.616C314.84 311.872 314.477 312 314.051 312H285.827Z" fill="black"/>
</svg>
